<svg width="1080" height="1080" viewBox="0 0 1080 1080" fill="none" xmlns="http://www.w3.org/2000/svg">
<path fill-rule="evenodd" clip-rule="evenodd" d="M741.064 145H102V105H789.349H837.633L803.491 139.142L534.623 408.01C534.083 408.003 533.542 408 533 408C460.651 408 402 466.651 402 539C402 539.542 402.003 540.083 402.01 540.623L150.284 792.349H410.899L533.248 670C605.401 669.866 663.866 611.401 664 539.248L921.436 281.812L955.578 247.67V295.954V981.183V1049H915.578V1001.18H258.633L196.674 1063.14L168.39 1034.86L236.206 967.041L370.899 832.349H102H53.7157L87.8579 798.206L741.064 145ZM630.727 451.76L745.909 336.579L735.302 325.972L620.114 441.16C623.85 444.489 627.394 448.029 630.727 451.76ZM435.16 626.114L319.926 741.348L330.533 751.955L445.76 636.727C442.029 633.394 438.489 629.85 435.16 626.114ZM789.349 832.349H427.468L298.633 961.183H915.578V344.238L467.468 792.349H789.349V832.349Z" fill="#2857FF"/>
<circle cx="532.917" cy="538.963" r="111.505" stroke="#2857FF" stroke-width="20"/>
<path d="M532.917 444.303V633.624" stroke="#2857FF" stroke-width="5"/>
<path d="M508.59 448.172L557.245 629.755" stroke="#2857FF" stroke-width="5"/>
<path d="M485.92 457.562L579.914 620.365" stroke="#2857FF" stroke-width="5"/>
<path d="M466.454 472.499L599.381 605.427" stroke="#2857FF" stroke-width="5"/>
<path d="M451.516 491.966L614.319 585.96" stroke="#2857FF" stroke-width="5"/>
<path d="M442.126 514.636L623.709 563.291" stroke="#2857FF" stroke-width="5"/>
<path d="M438.257 538.963H627.578" stroke="#2857FF" stroke-width="5"/>
<path d="M442.126 563.291L623.709 514.636" stroke="#2857FF" stroke-width="5"/>
<path d="M451.516 585.96L614.319 491.966" stroke="#2857FF" stroke-width="5"/>
<path d="M466.454 605.427L599.381 472.499" stroke="#2857FF" stroke-width="5"/>
<path d="M485.92 620.365L579.914 457.562" stroke="#2857FF" stroke-width="5"/>
<path d="M508.59 629.755L557.245 448.172" stroke="#2857FF" stroke-width="5"/>
</svg>
